<svg xmlns:inkscape="http://www.inkscape.org/namespaces/inkscape" xmlns:sodipodi="http://sodipodi.sourceforge.net/DTD/sodipodi-0.dtd" xmlns="http://www.w3.org/2000/svg" xmlns:svg="http://www.w3.org/2000/svg" version="1.1" id="svg1" sodipodi:docname="Fuchs Gutachten Logo + Schrift.eps" viewBox="382.81 3003.77 4980.46 1472.8">
  <defs id="defs1"/>
  <sodipodi:namedview id="namedview1" pagecolor="#ffffff" bordercolor="#000000" borderopacity="0.25" inkscape:showpageshadow="2" inkscape:pageopacity="0.0" inkscape:pagecheckerboard="0" inkscape:deskcolor="#d1d1d1">
    <inkscape:page x="0" y="0" inkscape:label="1" id="page1" width="5614.6665" height="8002.6665" margin="0" bleed="0"/>
  </sodipodi:namedview>
  <g id="g1" inkscape:groupmode="layer" inkscape:label="1">
    <g id="group-R5">
      <path id="path2" d="m 19399.2,30552.1 c -61,-185 -122,-370.3 -182.9,-555.3 h 903.6 l -642.6,-1747 h 783.4 l 461.7,240.8 542.3,1506.2 c 305.5,-0.4 611.1,-0.7 917,-1 67.1,182.5 134.2,365.1 201.4,547.7 -994.4,2.7 -1989.2,5.8 -2983.9,8.6" style="fill:#100f0d;fill-opacity:1;fill-rule:nonzero;stroke:none" transform="matrix(0.13333333,0,0,-0.13333333,0,8002.6667)"/>
      <path id="path3" d="m 24081.1,29823.5 -243.2,-629.3 H 23049 l 308.3,636.1 c 55.1,113.7 172.3,184 298,178.5 l 313.8,-14.1 c 86.3,-4.1 143.1,-90.7 112,-171.2 z m 580.2,728.9 c -494.9,-3.4 -989.9,-6.2 -1485.2,-8.9 -225.1,-123 -449.8,-245.3 -674.8,-368.2 -328.5,-635.5 -657,-1270.5 -985.5,-1906 h 1077.6 c 105.9,207.6 212,415.2 318.2,622.8 72.3,-64.4 144.6,-129.2 216.5,-192.9 176.4,-5.1 352.8,-9.2 529.2,-13.3 -54.8,-145.3 -108.9,-290.8 -163.7,-436.1 h 1064.3 l 622.4,1787.4 c -173,171.6 -346,342.9 -519,515.2" style="fill:#100f0d;fill-opacity:1;fill-rule:nonzero;stroke:none" transform="matrix(0.13333333,0,0,-0.13333333,0,8002.6667)"/>
      <path id="path4" d="m 18251.3,30543.5 c 363.8,0 727.6,0 1091,0 -189.1,-563.8 -378.5,-1127.7 -567.9,-1691.5 l -943.7,-602.2 h -1982 c -188.4,0 -319.6,187 -255.5,364.1 226.1,644.7 451.8,1289.4 677.9,1933.7 363.4,-1.4 727.2,-2.7 1091,-4.1 -184.7,-538.8 -369.3,-1077.7 -553.6,-1616.1 -20.5,-56.2 20.9,-115.5 80.5,-115.5 h 609.4 c 102.4,0 193.2,65.8 225.4,163.1 175.7,522.7 351.8,1045.8 527.5,1568.5" style="fill:#100f0d;fill-opacity:1;fill-rule:nonzero;stroke:none" transform="matrix(0.13333333,0,0,-0.13333333,0,8002.6667)"/>
      <path id="path5" d="m 28271.8,30547.6 c -287.4,-765.9 -574.8,-1531.9 -862.2,-2297.8 375.1,5.2 750.2,10 1125.2,15.1 134.3,362.4 268.6,724.5 402.9,1086.5 63,-65.4 125.7,-131.2 188.4,-196.9 184.3,-0.4 368.6,-0.7 552.8,-1.1 -102.4,-293.2 -204.8,-586.4 -307.2,-879.6 242.8,-8.2 485.7,-16.1 728.9,-24 l 421.7,240.8 c 256.2,685.8 512.1,1371.6 768.3,2057 -369.6,1.7 -738.9,3.1 -1108.5,4.5 -116.1,-300.1 -232.5,-600.5 -348.7,-900.6 -260.6,3.8 -521,7.5 -781.7,11.3 102.1,297.7 204.5,595.7 306.6,893.7 -362.1,-3.1 -724.1,-5.8 -1086.5,-8.9" style="fill:#100f0d;fill-opacity:1;fill-rule:nonzero;stroke:none" transform="matrix(0.13333333,0,0,-0.13333333,0,8002.6667)"/>
      <path id="path6" d="m 31365.6,28249.8 h 903.7 l 441.8,261 c 172,495.4 343.6,991 515.6,1486.7 295.2,-0.7 590.5,-1.4 885.8,-1.7 67.1,182.5 134.3,365.1 201.4,547.7 -991.7,0 -1983.3,0 -2975,0 -59.9,-178.5 -119.9,-356.6 -179.8,-534.7 288.1,-10 575.8,-19.9 863.5,-29.8 -218.9,-576.5 -438.1,-1153 -657,-1729.2" style="fill:#100f0d;fill-opacity:1;fill-rule:nonzero;stroke:none" transform="matrix(0.13333333,0,0,-0.13333333,0,8002.6667)"/>
      <path id="path7" d="m 36377.7,28264.9 c 360.7,1.7 721.4,3.1 1082.1,4.4 141.5,378.6 283,757.4 424.4,1135.9 181.2,-378.5 362.4,-757.3 544,-1135.9 202.7,-6.5 405.6,-13 608.7,-19.5 144.6,69.2 289.5,138.7 434,207.9 251.1,696.8 502.5,1393.5 753.6,2089.9 -359.3,-1.4 -718.7,-2.7 -1078,-4.1 -150.4,-416.5 -300.8,-832.7 -451.1,-1248.9 -172.3,416.2 -344.6,832.4 -517,1248.9 -321.2,0 -642.5,0 -963.8,0 -279.3,-759.4 -558,-1519.2 -836.9,-2278.6" style="fill:#100f0d;fill-opacity:1;fill-rule:nonzero;stroke:none" transform="matrix(0.13333333,0,0,-0.13333333,0,8002.6667)"/>
      <path id="path8" d="m 37100.5,30539 c -67.1,-178.1 -134.3,-356.5 -201.4,-534.7 -512.5,-2.4 -1024.9,-5.1 -1537.3,-7.5 -35.3,-112 -70.6,-223.7 -105.9,-335.4 452.8,0.4 905.7,0.7 1358.2,1.4 -58.2,-170.9 -116.9,-341.9 -175,-512.8 -457.3,1.4 -914.3,2.8 -1371.6,4.1 -78.1,-50 -116.5,-139.7 -96.6,-221.6 21.9,-90.4 104.5,-129.5 115.4,-134.6 l 1383.2,10.3 c -61.3,-186 -122.6,-372.4 -183.9,-558.4 h -2108.4 l -502.1,461.8 c 229.1,610.7 457.9,1221.1 687.1,1831.9 912.5,-1.7 1825.4,-3.1 2738.3,-4.5" style="fill:#100f0d;fill-opacity:1;fill-rule:nonzero;stroke:none" transform="matrix(0.13333333,0,0,-0.13333333,0,8002.6667)"/>
      <path id="path9" d="m 28160.4,30552.4 -184.9,-556.3 h -1287.3 c -82.2,0 -155.9,-50.3 -186,-126.7 l -346.7,-883.1 c -34.6,-88 31.2,-183.3 125.7,-182.2 l 1259.9,14.7 -205.5,-569 -2025.8,21.6 -345,336.7 c -54.4,53.1 -72.2,133.6 -45.2,204.8 l 447.4,1178.8 c 116.4,306.5 407.3,511.7 735.1,518.6 l 2058.3,42.1" style="fill:#100f0d;fill-opacity:1;fill-rule:nonzero;stroke:none" transform="matrix(0.13333333,0,0,-0.13333333,0,8002.6667)"/>
      <path id="path10" d="m 10863.6,28259.8 v 0.4 c 0.7,-0.4 1,-0.4 1.7,-0.4 z m 2761.2,2527.7 c 166.2,521.3 332,1043 498.1,1564.4 28.1,88.3 -37.7,178.8 -130.5,178.8 h -2026.2 c -58.9,0 -111.3,-38.1 -130.1,-94.2 l -572.8,-1733.6 c -18.5,-56.2 -70.9,-93.9 -130.1,-93.9 h -193.6 c -591.2,32.5 -1062.21,161.3 -1378.72,273 -841.97,296.3 -1367.78,748.1 -1493.15,858.4 -26.37,23 -51.72,45.9 -76.05,68.5 -97.62,90.1 -253.14,1.4 -226.42,-128.8 2.06,-8.5 3.77,-17.1 5.48,-25.7 80.16,-380.2 178.12,-729.2 283.97,-1045.4 0.34,-0.7 0.34,-1 0.69,-1.7 88.03,-249 199.36,-508.4 347.68,-774.2 174.01,-312.7 313.09,-562.4 574.79,-819 91.8,-90.1 411.39,-386.4 924.87,-579.9 151.06,-57.2 290.46,-94.2 410.06,-119.2 80.1,-16.8 128.4,-99.4 102.4,-177.1 l -499.79,-1512.4 c -29.46,-88.7 36.66,-179.8 130.19,-179.8 h 2047 c 59.3,0 111.7,37.7 130.2,93.9 182.2,551.5 364.5,1102.6 546.7,1654.1 18.8,56.2 71.2,94.2 130.2,94.2 H 14984 c 59.3,0 111.7,37.7 130.2,93.9 225.4,682 450.8,1363.6 676.2,2045.3 29.1,88.7 -36.7,180.2 -130.2,180.2 l -1904.9,1.4 c -92.8,0 -158.6,90.4 -130.5,178.8" style="fill:#ed1e24;fill-opacity:1;fill-rule:nonzero;stroke:none" transform="matrix(0.13333333,0,0,-0.13333333,0,8002.6667)"/>
      <path id="path11" d="m 14181.8,37311.6 c -225,-681.7 -450.4,-1363.7 -675.8,-2045.4 -18.5,-56.2 -70.9,-93.8 -130.2,-93.8 H 8594.56 c -291.85,-38.4 -625.48,-143.2 -926.24,-386.4 -5.82,-4.1 -11.64,-8.9 -17.47,-13.7 -1.71,-1.4 -3.08,-2.8 -4.79,-4.1 -248.69,-198 -441.2,-466.6 -547.39,-784.5 L 6223.81,31371.2 C 6101.18,31005 6394.06,30609 6787.3,30609 h 807.03 c 58.58,0 110.3,-37 129.49,-92.1 2.73,-7.6 5.13,-14.8 7.87,-22.3 69.2,-194.9 145.24,-378.9 230.88,-555.6 44.19,-92.5 91.11,-182.9 141.12,-272.3 180.87,-325.1 337.07,-605.7 634.4,-897.2 85.97,-84.2 176.75,-163 272.66,-235.6 104.82,-79.5 48.99,-246 -82.21,-246 H 3373.16 c -358.64,106.2 -591.92,498.8 -468.94,866.3 26.37,78.8 53.09,157.6 79.46,236.4 l 4.12,12.3 414.13,1204.4 h -8.91 c 512.46,1521.6 1024.21,3043.5 1535.97,4565.1 6.17,17.1 11.65,33.5 17.13,50.7 0.69,1.3 1.03,2.7 1.37,4.4 24.67,73 49.33,146.3 73.99,219.2 38.71,114.4 83.59,225.8 134.63,333 5.82,12.7 12.32,25.3 18.83,38.4 5.83,11.6 11.99,23.6 18.15,35.6 10.97,21.2 22.62,42.5 34.6,64.4 120.92,219.9 287.06,461.4 514.5,691.2 62.01,62.4 128.46,124 200.05,184.3 11.64,9.6 23.98,19.5 35.63,29.2 522.38,422.6 1184.51,668.9 1889.47,668.9 H 14052 c 93.2,0 159.3,-91.4 129.8,-180.1" style="fill:#100f0d;fill-opacity:1;fill-rule:nonzero;stroke:none" transform="matrix(0.13333333,0,0,-0.13333333,0,8002.6667)"/>
    </g>
  </g>
</svg>