<svg width="447" height="56" xmlns="http://www.w3.org/2000/svg" xmlns:xlink="http://www.w3.org/1999/xlink" xml:space="preserve" overflow="hidden"><g transform="translate(-423 -332)"><path d="M174.131 222.269 183.006 222.269C183.006 222.269 163.437 222.269 147.684 222.269 142.521 222.269 137.566 224.322 133.917 227.977 130.262 231.632 128.213 236.587 128.218 241.755 128.224 251.805 128.229 263.372 128.234 270.313 128.234 273.76 131.031 276.557 134.473 276.552 143.03 276.547 157.364 276.542 157.364 276.542L166.234 257.768 148.77 257.768 148.77 241.037 174.136 241.037 183.006 222.269" fill="#D4523B" fill-rule="evenodd" transform="matrix(1 0 0 1.01264 390.458 107.394)"/><g><path d="M0.00419651 0.00746527 0.00471019 0.00746527C0.00471019 0.00746527 0.00357751 0.00746527 0.00266571 0.00746527 0.00236689 0.00746527 0.00208011 2.08704 0.00186886 5.78815 0.00165731 9.48926 0.00153874 14.5066 0.00153905 19.7397 0.00153935 29.9164 0.00153965 41.6305 0.00153995 48.6589 0.00153995 52.1494 0.00170185 54.9818 0.00190106 54.9766 0.00239638 54.9713 0.00322603 54.9661 0.00322603 54.9661L0.00373941 35.9551 0.0027286 35.9551 0.0027286 19.0132 0.00419681 19.0132 0.00471019 0.00746527" stroke="#D4523B" stroke-width="1.10816e-06" stroke-linecap="round" stroke-linejoin="round" stroke-miterlimit="1.5" fill="none" transform="matrix(17276.9 0 0 1 492.087 332.464)"/></g><g><path d="M0.00419638 0.00428461 0.00471006 0.00361876C0.00471006 0.00361876 0.00357738 0.0040075 0.00266587 0.00637643 0.00236676 0.00369846 0.00208021 2.08597 0.00186886 5.78519 0.0016575 9.48967 0.00153879 14.5112 0.00153894 19.7443 0.00153924 29.9158 0.0015398 41.6246 0.0015399 48.6583 0.0015401 52.1488 0.00170161 54.9774 0.00190112 54.9792 0.00239645 54.9731 0.00322609 54.9647 0.00322609 54.9647L0.00373943 35.9531 0.00272862 35.9546 0.00272851 19.0126 0.00419672 19.0153 0.00471006 0.00361876" stroke="#000000" stroke-width="1.10816e-06" stroke-linecap="round" stroke-linejoin="round" stroke-miterlimit="1.5" fill="#D4523B" fill-rule="evenodd" transform="matrix(-17276.8 8.95288 -0.000504807 -1 647.753 387.408)"/></g><path d="M40.6772 0 26.827 0 28.8234-5.53177 21.6903-5.53177 19.1532-8.08969 15.202 0 1.26856 0 12.1657-22.2934C12.4673-22.9849 12.8728-23.6244 13.3719-24.2067 13.871-24.7994 14.4533-25.2985 15.1188-25.704L21.5656-28.865C22.3142-29.3225 23.1305-29.5513 24.0195-29.5513L40.7604-29.5513C41.1867-29.5513 41.5766-29.4941 41.925-29.3849 42.2681-29.2861 42.5489-29.1146 42.7568-28.865L47.7063-24.2899C48.1326-23.8999 48.3926-23.406 48.4757-22.8133 48.5693-22.2155 48.5017-21.5864 48.2678-20.9209ZM25.2881-20.193 21.1912-12.0202 31.1942-12.0202 34.1472-20.193C34.3812-20.8013 34.3448-21.3212 34.0432-21.7527 33.7365-22.1947 33.2738-22.4182 32.6499-22.4182L28.4699-22.4182C27.8304-22.4182 27.2221-22.1947 26.6398-21.7527 26.0679-21.3212 25.6208-20.8013 25.2881-20.193Z" transform="matrix(1 0 0 1.01264 625.215 376.191)"/><path d="M47.2696-29.5513 44.6701-22.4182 28.1995-22.4182C27.6172-22.4182 27.0194-22.1999 26.4111-21.7735 25.8132-21.3576 25.3921-20.8273 25.1425-20.193L21.1912-9.35825C20.9833-8.74477 21.0301-8.21966 21.3368-7.77775 21.6384-7.34623 22.1115-7.13307 22.7509-7.13307L39.1383-7.13307 36.5388 0 11.4379 0C10.4916 0 9.81577-0.228757 9.39984-0.686272L5.3654-3.95126C4.95987-4.33599 4.72072-4.8247 4.63753-5.40699 4.56475-5.99968 4.64273-6.61836 4.86629-7.25784L9.85736-20.9833C10.9076-23.9051 12.6856-26.0627 15.1812-27.4509 17.6767-28.8494 20.6193-29.5513 24.0195-29.5513Z" transform="matrix(1 0 0 1.01264 665.391 376.191)"/><path d="M16.3873 0 2.22518 0 12.9352-29.5513 27.0973-29.5513 22.8757-17.8431 33.4609-17.8431 37.6826-29.5513 51.8863-29.5513 42.5281-3.7641C42.2369-3.01544 41.7378-2.43834 41.0307-2.03802L37.7242-0.353534C37.3342-0.114379 36.8975 0 36.414 0L26.9726 0 31.0902-11.3963 24.2899-11.3963 21.524-14.1622Z" transform="matrix(1 0 0 1.01264 701.117 376.191)"/><path d="M9.39984-22.4182 11.9786-29.5513 50.5761-29.5513 47.9766-22.4182 36.414-22.4182 29.6345-3.7641C29.3433-2.97384 28.8286-2.39675 28.0956-2.03802L24.8306-0.353534C24.4406-0.114379 24.0039 0 23.5204 0L12.852 0 20.9833-22.4182Z" transform="matrix(1 0 0 1.01264 741.792 376.191)"/><path d="M25.7872-22.4182 24.2483-18.1134 42.4449-18.1134 39.9909-11.4379 21.7943-11.4379 21.0249-9.35825C20.8013-8.74477 20.8429-8.21966 21.1496-7.77775 21.4512-7.34623 21.9243-7.13307 22.5638-7.13307L40.3653-7.13307 37.7657 0 11.4379 0C10.4916 0 9.81577-0.228757 9.39984-0.686272L5.3654-3.95126C4.95987-4.33599 4.72072-4.8247 4.63753-5.40699 4.56475-5.99968 4.64273-6.61836 4.86629-7.25784L12.9352-29.5513 48.4757-29.5513 45.897-22.4182Z" transform="matrix(1 0 0 1.01264 780.197 376.191)"/><path d="M16.2002 0 2.22518 0 12.9352-29.5513 25.5168-29.5513 32.3172-13.7046 38.0985-29.5513 52.1567-29.5513 42.8192-3.7641C42.5125-2.97384 41.9926-2.39675 41.2595-2.03802L37.9529-0.353534C37.563-0.114379 37.1419 0 36.6843 0L28.865 0 21.6488-14.9732Z" transform="matrix(1 0 0 1.01264 817.15 376.191)"/><path d="M50.5761-29.5513 47.9766-22.4182 26.7438-22.4182C26.1615-22.4182 25.5636-22.1999 24.9553-21.7735 24.3574-21.3576 23.9415-20.8273 23.7076-20.193L19.7563-9.35825C19.5328-8.74477 19.5743-8.21966 19.8811-7.77775 20.1826-7.34623 20.6557-7.13307 21.2952-7.13307L26.931-7.13307C27.5549-7.13307 28.1475-7.34623 28.7194-7.77775 29.3017-8.21966 29.7021-8.74477 29.9256-9.35825L31.0486-12.3945 26.0991-12.3945 28.4283-18.7997 41.4051-18.7997C41.6806-18.7997 41.9354-18.7633 42.1745-18.6957 42.4085-18.6385 42.5904-18.5085 42.7152-18.3006L45.086-16.3873C45.4187-16.1482 45.6163-15.8102 45.6891-15.3683 45.7722-14.9212 45.7359-14.4585 45.5851-13.975L43.1311-7.25784C42.9232-6.61836 42.5489-5.98928 42.0082-5.3654 41.4779-4.75191 40.854-4.284 40.1365-3.95126L33.7729-0.686272C33.357-0.436718 32.941-0.254752 32.5251-0.145573 32.1196-0.0467912 31.7037 0 31.2774 0L11.4379 0C10.4916 0 9.81577-0.228757 9.39984-0.686272L5.3654-3.95126C4.95987-4.33599 4.72072-4.8247 4.63753-5.40699 4.56475-5.99968 4.64273-6.61836 4.86629-7.25784L9.85736-20.9833C10.9076-23.9051 12.6856-26.0627 15.1812-27.4509 17.6767-28.8494 20.6193-29.5513 24.0195-29.5513Z" transform="matrix(1 0 0 1.01264 419.198 376.191)"/><path d="M38.7224-29.5513 52.9885-29.5513 45.3979-8.63039C45.0912-7.84014 44.6753-7.18506 44.1502-6.67555 43.6199-6.16085 43.0688-5.73973 42.4865-5.40699L34.0848-0.686272C33.6949-0.436718 33.2946-0.254752 32.8787-0.145573 32.4731-0.0467912 32.0676 0 31.6517 0L7.90252 0C6.32202 0 5.17823-0.545898 4.47116-1.64289 3.7641-2.75029 3.69131-4.09683 4.2632-5.67734L12.9352-29.5513 27.0973-29.5513 19.7563-9.35825C19.5328-8.74477 19.5587-8.21966 19.8395-7.77775 20.115-7.34623 20.5674-7.13307 21.1912-7.13307L28.3659-7.13307C28.9742-7.13307 29.5721-7.34623 30.1544-7.77775 30.7471-8.21966 31.1526-8.74477 31.3605-9.35825Z" transform="matrix(1 0 0 1.01264 459.011 376.191)"/></g></svg>